<svg width="25" height="25" viewBox="0 0 25 25" fill="none" xmlns="http://www.w3.org/2000/svg">
<path d="M22.0215 18.2617C21.2461 17.4805 19.3682 16.3403 18.4571 15.8809C17.2705 15.2832 17.1729 15.2344 16.2403 15.9273C15.6182 16.3897 15.2046 16.8027 14.4766 16.6475C13.7486 16.4922 12.1665 15.6167 10.7813 14.2358C9.39603 12.855 8.46976 11.2271 8.314 10.5015C8.15824 9.77588 8.57816 9.36719 9.03617 8.74366C9.68167 7.86475 9.63285 7.71826 9.08109 6.53174C8.65091 5.60889 7.47757 3.74854 6.69339 2.97705C5.85453 2.14844 5.85453 2.29492 5.314 2.51953C4.87395 2.70468 4.45177 2.92974 4.05277 3.1919C3.27152 3.71094 2.83793 4.14209 2.5347 4.79004C2.23148 5.43799 2.09525 6.95703 3.66117 9.80176C5.22709 12.6465 6.32572 14.1011 8.59964 16.3687C10.8736 18.6362 12.6221 19.8555 15.1783 21.2891C18.3404 23.0601 19.5533 22.7149 20.2032 22.4121C20.8531 22.1094 21.2862 21.6797 21.8062 20.8984C22.069 20.5001 22.2946 20.0784 22.48 19.6387C22.7051 19.1001 22.8516 19.1001 22.0215 18.2617Z" stroke="#406180" stroke-width="2" stroke-miterlimit="10"/>
</svg>
