<svg width="25" height="25" viewBox="0 0 25 25" fill="none" xmlns="http://www.w3.org/2000/svg">
<path d="M3.90625 22.6562V3.32715C3.90649 3.25881 3.92465 3.19174 3.95893 3.13262C3.9932 3.0735 4.04238 3.0244 4.10156 2.99023C4.48291 2.7666 5.51367 2.34375 7.8125 2.34375C10.9375 2.34375 14.8926 4.6875 17.1875 4.6875C18.4832 4.68414 19.7652 4.42236 20.9585 3.91748C20.9734 3.91128 20.9895 3.90885 21.0055 3.91041C21.0216 3.91197 21.0369 3.91746 21.0503 3.9264C21.0637 3.93534 21.0747 3.94745 21.0823 3.96165C21.0898 3.97586 21.0938 3.99171 21.0938 4.00781V14.7188C21.0936 14.7566 21.0826 14.7935 21.0618 14.8252C21.0411 14.8568 21.0117 14.8818 20.9771 14.897C20.5747 15.0732 19.1567 15.625 17.1875 15.625C14.8438 15.625 10.9375 14.0625 7.8125 14.0625C4.6875 14.0625 3.90625 14.8438 3.90625 14.8438" stroke="#406180" stroke-width="2" stroke-miterlimit="10" stroke-linecap="round"/>
</svg>
