<svg width="26" height="29" viewBox="0 0 26 29" fill="none" xmlns="http://www.w3.org/2000/svg">
<g clip-path="url(#clip0_25_978)">
<path d="M13.0419 7.93133C9.41778 7.93133 6.49458 10.817 6.49458 14.3945C6.49458 17.972 9.41778 20.8576 13.0419 20.8576C16.6659 20.8576 19.5891 17.972 19.5891 14.3945C19.5891 10.817 16.6659 7.93133 13.0419 7.93133ZM13.0419 18.5963C10.6999 18.5963 8.78527 16.712 8.78527 14.3945C8.78527 12.077 10.6942 10.1926 13.0419 10.1926C15.3895 10.1926 17.2984 12.077 17.2984 14.3945C17.2984 16.712 15.3838 18.5963 13.0419 18.5963ZM21.3841 7.66695C21.3841 8.50508 20.7003 9.17445 19.857 9.17445C19.0079 9.17445 18.3298 8.49945 18.3298 7.66695C18.3298 6.83445 19.0136 6.15945 19.857 6.15945C20.7003 6.15945 21.3841 6.83445 21.3841 7.66695ZM25.7204 9.19695C25.6236 7.17758 25.1563 5.38883 23.6577 3.91508C22.1647 2.44133 20.3527 1.98008 18.307 1.87883C16.1987 1.76071 9.87933 1.76071 7.77098 1.87883C5.73101 1.97446 3.91897 2.43571 2.42033 3.90946C0.921696 5.38321 0.460138 7.17195 0.35757 9.19133C0.237906 11.2726 0.237906 17.5107 0.35757 19.5919C0.45444 21.6113 0.921696 23.4001 2.42033 24.8738C3.91897 26.3476 5.72531 26.8088 7.77098 26.9101C9.87933 27.0282 16.1987 27.0282 18.307 26.9101C20.3527 26.8144 22.1647 26.3532 23.6577 24.8738C25.1506 23.4001 25.6179 21.6113 25.7204 19.5919C25.8401 17.5107 25.8401 11.2782 25.7204 9.19695ZM22.9967 21.8251C22.5522 22.9276 21.6918 23.7769 20.5692 24.2213C18.8883 24.8794 14.8995 24.7276 13.0419 24.7276C11.1842 24.7276 7.18976 24.8738 5.51448 24.2213C4.39762 23.7826 3.53719 22.9332 3.08703 21.8251C2.42033 20.1657 2.57419 16.2282 2.57419 14.3945C2.57419 12.5607 2.42603 8.61758 3.08703 6.96383C3.53149 5.86133 4.39192 5.01196 5.51448 4.56758C7.19546 3.90946 11.1842 4.06133 13.0419 4.06133C14.8995 4.06133 18.894 3.91508 20.5692 4.56758C21.6861 5.00633 22.5465 5.8557 22.9967 6.96383C23.6634 8.6232 23.5095 12.5607 23.5095 14.3945C23.5095 16.2282 23.6634 20.1713 22.9967 21.8251Z" fill="#406180"/>
</g>
<defs>
<clipPath id="clip0_25_978">
<rect width="25.5281" height="28.8" fill="white" transform="translate(0.272095)"/>
</clipPath>
</defs>
</svg>
