<svg width="30" height="27" viewBox="0 0 30 27" fill="none" xmlns="http://www.w3.org/2000/svg">
<path d="M27.6046 6.48505C27.792 5.86005 27.6046 5.40005 26.703 5.40005H23.7197C22.9599 5.40005 22.6104 5.79505 22.423 6.23505C22.423 6.23505 20.9035 9.89005 18.7559 12.2601C18.0619 12.9451 17.7428 13.1651 17.363 13.1651C17.1755 13.1651 16.8868 12.9451 16.8868 12.3201V6.48505C16.8868 5.73505 16.6741 5.40005 16.046 5.40005H11.3557C10.8796 5.40005 10.596 5.75005 10.596 6.07505C10.596 6.78505 11.6698 6.95005 11.7812 8.95005V13.2901C11.7812 14.2401 11.609 14.4151 11.2291 14.4151C10.2161 14.4151 7.75446 10.745 6.29571 6.54505C6.00193 5.73005 5.71322 5.40005 4.94839 5.40005H1.96505C1.11411 5.40005 0.941895 5.79505 0.941895 6.23505C0.941895 7.01505 1.95492 10.8901 5.65751 16.0101C8.12421 19.5051 11.5989 21.4001 14.7595 21.4001C16.6589 21.4001 16.8919 20.9801 16.8919 20.2551C16.8919 16.9151 16.7197 16.6001 17.6719 16.6001C18.1126 16.6001 18.8724 16.8201 20.6451 18.5051C22.6712 20.5051 23.0055 21.4001 24.1401 21.4001H27.1234C27.9743 21.4001 28.4049 20.9801 28.1567 20.1501C27.5894 18.4051 23.7551 14.8151 23.5829 14.5751C23.1422 14.0151 23.2689 13.7651 23.5829 13.2651C23.588 13.2601 27.2298 8.20005 27.6046 6.48505Z" fill="#406180"/>
</svg>
